<?xml version="1.0" standalone="no"?>
<!DOCTYPE svg PUBLIC "-//W3C//DTD SVG 20010904//EN"
 "http://www.w3.org/TR/2001/REC-SVG-20010904/DTD/svg10.dtd">
<svg version="1.0" xmlns="http://www.w3.org/2000/svg"
 width="395.000000pt" height="395.000000pt" viewBox="0 0 395.000000 395.000000"
 preserveAspectRatio="xMidYMid meet">
<metadata>
Created by potrace 1.11, written by Peter Selinger 2001-2013
</metadata>
<g transform="translate(0.000000,395.000000) scale(0.100000,-0.100000)"
fill="#000000" stroke="none">
<path d="M1715 3865 c-407 -58 -765 -232 -1061 -517 -170 -164 -263 -289 -375
-503 -411 -788 -203 -1783 491 -2343 130 -105 213 -159 359 -232 414 -207 887
-253 1348 -131 430 114 825 397 1075 771 91 136 197 355 242 500 213 689 19
1442 -497 1937 -276 265 -620 440 -997 508 -130 23 -451 29 -585 10z m416
-355 c195 -20 345 -64 522 -151 148 -74 231 -129 339 -224 156 -136 269 -285
367 -481 66 -133 96 -222 128 -372 33 -163 37 -408 9 -567 -61 -341 -247 -673
-497 -892 -419 -365 -978 -480 -1509 -311 -313 100 -611 326 -796 604 -241
362 -319 798 -219 1221 66 279 205 525 409 728 126 125 230 202 369 276 270
142 571 200 878 169z"/>
<path d="M2445 3155 c-80 -17 -176 -58 -245 -105 -128 -87 -246 -250 -285
-395 -9 -33 -49 -344 -90 -691 -80 -687 -76 -668 -152 -762 -45 -55 -120 -97
-207 -117 -38 -9 -82 -23 -97 -31 -34 -17 -74 -76 -84 -121 -14 -69 36 -162
102 -189 71 -30 205 -6 343 62 80 39 109 61 181 134 70 70 95 103 127 171 23
46 48 113 56 149 9 36 43 306 76 600 75 670 80 704 116 769 53 99 140 160 265
186 39 8 84 24 99 35 109 77 95 247 -23 301 -48 21 -97 23 -182 4z"/>
</g>
</svg>
